<svg xmlns="http://www.w3.org/2000/svg" width="100%" height="100%" viewBox="0 0 4800 2140" clip-rule="evenodd" fill-rule="evenodd" stroke-linecap="round" stroke-linejoin="round" stroke-miterlimit="2"><defs><linearGradient id="Gradient-0" x1="3203.8" y1="738.3" x2="3203.8" y2="1087.6" gradientUnits="userSpaceOnUse"><stop offset="0" stop-color="#fff"/><stop offset="1" stop-color="#000"/></linearGradient><linearGradient id="Gradient-1" x1="0" y1="0" x2="1" y2="0" gradientUnits="userSpaceOnUse" gradientTransform="matrix(-132.8 -2.8 2.8 -132.8 1668.2 1058.6)"><stop offset="0" stop-color="#3d0000"/><stop offset="0" stop-color="#3d0000"/><stop offset=".2" stop-color="#c70000"/><stop offset=".4" stop-color="#3d0000"/><stop offset=".8" stop-color="#c70000"/><stop offset=".9" stop-color="#8c0000"/><stop offset="1" stop-color="#3d0000"/><stop offset="1" stop-color="#3d0000"/></linearGradient><linearGradient id="Gradient-2" x1="0" y1="0" x2="1" y2="0" gradientUnits="userSpaceOnUse" gradientTransform="matrix(-112.4 1.5 -1.5 -112.4 1773.2 1054.3)"><stop offset="0" stop-color="#3d0000"/><stop offset="0" stop-color="#3d0000"/><stop offset=".2" stop-color="#c70000"/><stop offset=".5" stop-color="#3d0000"/><stop offset=".8" stop-color="#c70000"/><stop offset="1" stop-color="#3d0000"/></linearGradient><linearGradient id="Gradient-3" x1="0" y1="0" x2="1" y2="0" gradientUnits="userSpaceOnUse" gradientTransform="matrix(-46.6 .3 -0.3 -46.6 1749 1031.1)"><stop offset="0" stop-color="#c70000"/><stop offset=".8" stop-color="#3d0000"/><stop offset="1" stop-color="#3d0000"/></linearGradient><linearGradient id="Gradient-4" x1="0" y1="0" x2="1" y2="0" gradientUnits="userSpaceOnUse" gradientTransform="matrix(-44.2 0 0 -44.2 1783.1 1045.2)"><stop offset="0" stop-color="#c70000"/><stop offset=".8" stop-color="#3d0000"/><stop offset="1" stop-color="#3d0000"/></linearGradient><linearGradient id="Gradient-5" x1="0" y1="0" x2="1" y2="0" gradientUnits="userSpaceOnUse" gradientTransform="matrix(-64.4 1.9 -1.9 -64.4 1825.5 1030.2)"><stop offset="0" stop-color="#c70000"/><stop offset=".8" stop-color="#3d0000"/><stop offset="1" stop-color="#3d0000"/></linearGradient><linearGradient id="Gradient-6" x1="0" y1="0" x2="1" y2="0" gradientUnits="userSpaceOnUse" gradientTransform="matrix(-70.2 0 0 -70.2 1851.8 1063.7)"><stop offset="0" stop-color="#c70000"/><stop offset=".8" stop-color="#3d0000"/><stop offset="1" stop-color="#3d0000"/></linearGradient><linearGradient id="Gradient-7" x1="0" y1="0" x2="1" y2="0" gradientUnits="userSpaceOnUse" gradientTransform="matrix(-52.4 1.2 -1.2 -52.4 1870.7 1026.8)"><stop offset="0" stop-color="#c70000"/><stop offset=".8" stop-color="#3d0000"/><stop offset="1" stop-color="#3d0000"/></linearGradient><linearGradient id="Gradient-8" x1="0" y1="0" x2="1" y2="0" gradientUnits="userSpaceOnUse" gradientTransform="matrix(-48.6 -0.4 .4 -48.6 1680.7 1041.1)"><stop offset="0" stop-color="#c70000"/><stop offset=".8" stop-color="#3d0000"/><stop offset="1" stop-color="#3d0000"/></linearGradient><linearGradient id="Gradient-9" x1="0" y1="0" x2="1" y2="0" gradientUnits="userSpaceOnUse" gradientTransform="matrix(132.8 -2.8 2.8 132.8 375.9 1063.9)"><stop offset="0" stop-color="#3d0000"/><stop offset="0" stop-color="#3d0000"/><stop offset=".2" stop-color="#c70000"/><stop offset=".4" stop-color="#3d0000"/><stop offset=".8" stop-color="#c70000"/><stop offset=".9" stop-color="#8c0000"/><stop offset="1" stop-color="#3d0000"/><stop offset="1" stop-color="#3d0000"/></linearGradient><linearGradient id="Gradient-10" x1="0" y1="0" x2="1" y2="0" gradientUnits="userSpaceOnUse" gradientTransform="matrix(112.4 1.5 -1.5 112.4 270.9 1059.6)"><stop offset="0" stop-color="#3d0000"/><stop offset="0" stop-color="#3d0000"/><stop offset=".2" stop-color="#c70000"/><stop offset=".5" stop-color="#3d0000"/><stop offset=".8" stop-color="#c70000"/><stop offset="1" stop-color="#3d0000"/></linearGradient><linearGradient id="Gradient-11" x1="0" y1="0" x2="1" y2="0" gradientUnits="userSpaceOnUse" gradientTransform="matrix(46.6 .3 -0.3 46.6 295 1036.4)"><stop offset="0" stop-color="#c70000"/><stop offset=".8" stop-color="#3d0000"/><stop offset="1" stop-color="#3d0000"/></linearGradient><linearGradient id="Gradient-12" x1="0" y1="0" x2="1" y2="0" gradientUnits="userSpaceOnUse" gradientTransform="matrix(44.2 0 0 44.2 261 1050.5)"><stop offset="0" stop-color="#c70000"/><stop offset=".8" stop-color="#3d0000"/><stop offset="1" stop-color="#3d0000"/></linearGradient><linearGradient id="Gradient-13" x1="0" y1="0" x2="1" y2="0" gradientUnits="userSpaceOnUse" gradientTransform="matrix(64.4 1.9 -1.9 64.4 218.6 1035.5)"><stop offset="0" stop-color="#c70000"/><stop offset=".8" stop-color="#3d0000"/><stop offset="1" stop-color="#3d0000"/></linearGradient><linearGradient id="Gradient-14" x1="0" y1="0" x2="1" y2="0" gradientUnits="userSpaceOnUse" gradientTransform="matrix(70.2 0 0 70.2 192.3 1069)"><stop offset="0" stop-color="#c70000"/><stop offset=".8" stop-color="#3d0000"/><stop offset="1" stop-color="#3d0000"/></linearGradient><linearGradient id="Gradient-15" x1="0" y1="0" x2="1" y2="0" gradientUnits="userSpaceOnUse" gradientTransform="matrix(52.4 1.2 -1.2 52.4 173.3 1032.1)"><stop offset="0" stop-color="#c70000"/><stop offset=".8" stop-color="#3d0000"/><stop offset="1" stop-color="#3d0000"/></linearGradient><linearGradient id="Gradient-16" x1="0" y1="0" x2="1" y2="0" gradientUnits="userSpaceOnUse" gradientTransform="matrix(48.6 -0.4 .4 48.6 363.4 1046.4)"><stop offset="0" stop-color="#c70000"/><stop offset=".8" stop-color="#3d0000"/><stop offset="1" stop-color="#3d0000"/></linearGradient><linearGradient id="Gradient-17" x1="0" y1="0" x2="1" y2="0" gradientUnits="userSpaceOnUse" gradientTransform="matrix(-40.3 1016.1 -1016.1 -40.3 1212.5 962.7)"><stop offset="0" stop-color="#7f5454"/><stop offset="1" stop-color="#000"/></linearGradient><clipPath id="ClipPath-1"><path d="M3683.9 948c-0.3-2-0.6-4-0.8-6c-1.9-10.9-2.7-21.7-2.5-32.6c.2-10.9 1.2-21.7 3-32.6c2.9-19.2 7.7-37.4 14.4-54.6c6.7-17.2 14.8-34.3 24.2-51.3c4.7-8.4 10.4-15.2 17.1-20.7c6.7-5.4 14.7-9 24.2-10.8c1.8-0.8 3.3-1.1 4.6-1.1h9.5c1.4 0 2.9 .2 4.3 .5c10.5 1.5 15.2 7.6 14.2 18.5c-0.8 10.5-1.6 21.5-2.5 33.1c-0.9 11.6-2.2 22.5-4.1 32.6c-1.8 9.4-4.6 18.7-8.4 27.7c-3.8 9.1-8.9 17.4-15.5 25c-1.8 1.8-3.9 3.7-6.2 5.5c-2.4 1.8-4.6 3.6-6.8 5.4c-1.5 .7-2.2 1.4-2.2 2.2c-0.3 4-0.4 8-0.3 12.2c.2 4.2 .3 8.6 .3 13.3c1.8-1.1 2.6-1.6 2.2-1.6c5.1-4.7 10.5-7.9 16.3-9.5c5.8-1.7 11.8-2.5 17.9-2.5c9.8 0 19 1.4 27.7 4.1c8.7 2.7 16.5 8.1 23.4 16c6.9 8 12.8 16.4 17.7 25.3c4.8 8.9 8 18.5 9.5 29.1c0 .7 0 1.3 .2 1.9c.1 .2 .2 .6 .4 1l.1 .4l.3 1c6.2-2.9 12.3-5.5 18.2-7.9c6-2.3 12.1-5 18.2-7.9c2.6-1 4.9-2.2 7.1-3.5c2.2-1.3 4.4-2.4 6.5-3.5c5.5-1.8 10.4-4.2 14.7-7.1c.6-0.4 1.1-0.7 1.7-1.1c1.4-7.9 3.3-15.9 5.9-23.9c2.2-7.6 5.5-14.8 10.1-21.7c4.5-6.9 9.7-13 15.7-18.2c6-5.3 12.6-9.4 19.8-12.5c7.3-3.1 15.1-4.6 23.4-4.6c5.1 0 10.5 .3 16.3 1.1c5.8 .7 11.2 1.6 16.3 2.7c4.7 1.4 8.5 3.5 11.4 6.2c2.9 2.7 4.7 6.6 5.4 11.7c.4 1.5 .2 4-0.5 7.6c-1.5 8.7-3.9 16.5-7.3 23.4c-3.5 6.9-9.4 12.5-17.7 16.8c-5.1 2.6-9.9 5.2-14.4 7.9c-4.5 2.7-9.5 4.6-14.9 5.7c-1.5 0-2.2 .9-2.2 2.7c-0.4 5.1-0.6 10.2-0.8 15.2c-0.2 5.1-0.1 10.2 .3 15.2c.3 5.1 .9 9.9 1.9 14.4c.9 4.6 1.7 9.4 2.4 14.4c0 1.1 .3 2.3 .8 3.6c.6 1.2 1.2 2.4 1.9 3.5c1.1 1.8 2.6 2.7 4.4 2.7c.7 0 3.1-1 7.3-3c4.2-2 8.9-4.1 14.1-6.5c5.3-2.3 10.3-4.7 15-7.1c3.6-1.8 6.2-3.1 7.9-3.9l1.3-0.7c6.9-4 13.6-8.1 20.1-12.5c6.5-4.3 12.8-8.8 19-13.5c4-3.3 7.6-6.7 10.9-10.1c1.1-1.2 2.2-2.3 3.4-3.5c.2-26.2 .7-52.5 1.5-78.8c0-4.7 .2-9.4 .5-14.1c.4-4.7 .9-9.3 1.6-13.6c-5-1.5-9.8-2.7-14.4-3.8c-4.5-1.1-9.1-2.2-13.8-3.3c-1.5-0.3-2.9-6.7 0-9.8c2.3-2.5 5.9-3.2 6.8-3.2l7.3-0.6c3.6 0 7.4 .2 11.4 .6c.8 0 1.6-0.1 2.5-0.3c.9-0.2 1.7-0.3 2.4-0.3c.7-3.9 1.4-7.8 1.9-11.6c.6-3.8 1.2-7.7 1.9-11.7c.7-2.9 1.4-5.8 1.9-8.7c.6-2.9 1.2-5.8 1.9-8.7c1.8-6.2 4.9-10.3 9.3-12.5c4.3-2.2 9.4-3.3 15.2-3.3c5.8 0 10.8 1 15.2 3c4.3 2 6.9 6.5 7.6 13.3c.7 5.8 1.2 11.5 1.3 17.1c.2 5.7 .7 11.2 1.4 16.6l.6 3.3c3.6 .4 7.3 1.2 10.7 1.2c5.8 1 6.1 1 9.4 1.4c3.6 .3 23.1-0.3 23.9 .1c2.1 1.1 3.3 2.5 3.5 4.3c.2 1.9-0.8 3.3-3 4.4c-1.8 1.1-3.7 1.9-5.7 2.4c-2 .6-4.1 1.2-6.3 1.9c-5.4 .8-10.7 1.5-16 2.2c-5.2 .7-10.8 1.5-16.5 2.2v3.8c0 23.2-0.1 46.3-0.3 69.3c-0.2 23-0.3 46-0.3 69.2c.4 9.4 .8 18.7 1.4 27.7c.5 9.1 1.9 18.3 4 27.7c.8 2.2 2.1 5.7 4.1 10.6c2 4.9 4.5 7.4 7.3 7.4c1.5 0 3.3-0.6 5.5-1.7c7.6-3.6 14.5-7.9 20.6-13c6.2-5.1 11.3-11.6 15.2-19.6c1.9-3.2 3.8-6.4 6-9.5c2.2-3 4.2-6 6-8.9c4.7-6.6 9.2-13.1 13.6-19.6c4.3-6.5 8.8-13 13.6-19.5c2.9-4 5.7-8 8.4-12c2.7-4 5.5-8 8.4-12c2.2-2.9 3.4-5 3.8-6.5c1.1-2.9 2.5-4.8 4.3-5.7c1.9-0.9 4.2-1.3 7.1-1.3c2.5 .7 3.5 2.1 2.7 4.3c-1.4 2.9-2.6 5.6-3.5 8.2c-0.9 2.5-2.1 5.2-3.5 8.1c-2.9 6.5-5.8 12.1-8.7 16.9c-3.7 6.8-7.2 13.7-10.6 20.6l-2 4c-2.8 5.6-5.7 11.3-8.6 17.2c-1.8 4-3.7 7.8-5.7 11.4c-2 3.6-3.9 7.4-5.7 11.4c-7.3 16.3-17.4 28.3-30.5 36.1c-13 7.8-28.2 11.7-45.6 11.7c-6.5 0-13-0.6-19.5-1.9c-6.6-1.3-12.6-3.4-18.2-6.5c-5.7-3.1-10.6-7-15-11.7c-4.3-4.7-7.4-10.3-9.2-16.8c-6.2-20.3-9.3-40.4-9.3-60.3v-3.6c-4 3.5-8.2 7.3-12.5 11.2c-8.3 7.2-16.9 13.5-25.8 19c-8.8 5.4-17.8 11.2-26.9 17.4c-11.2 7.6-24 11.4-38.5 11.4c-8.4 0-16.5-0.6-24.5-1.7c-7.9-1-15.2-3.2-21.7-6.5c-6.5-3.2-12.1-7.9-16.9-13.8c-4.7-6-7.9-13.7-9.7-23.1c-2.4-12.7-3.1-25.4-2.2-38.3c-2.9 1.5-5.8 2.9-8.7 4.1l-53.8 24.4c-1.1 0-1.6 1.3-1.6 3.8c0 10.9-1.4 21.8-4.1 32.9c-2.7 11-7 21-13 29.9c-6 8.8-13.5 16-22.6 21.4c-9 5.5-19.9 8.2-32.6 8.2c-5.8 0-12.6-0.9-20.6-2.7l-4.9-1.7c-6.2-2.9-9.2-7.9-9.2-15.2c.3-13.4 5.6-24.4 15.7-33.1c4.7-4 9.6-7.8 14.7-11.4c5.1-3.7 10.1-7.5 15.2-11.5c2.9-1.8 4.5-4.1 4.9-7c.7-7.3 1.3-14.3 1.6-21.2c.4-6.9 0-13.8-1.1-20.6c-1.8-11.6-5.9-23.4-12.5-35.4c-0.3-0.3-0.5-0.6-0.5-0.8c0-0.1-0.1-0.2-0.2-0.3c0-0.1 0-0.1-0.1-0.2c-0.1-0.1-0.1-0.2-0.3-0.3c-5-6.1-9.2-9.2-12.5-9.2c-1.8 0-3.4 .3-4.8 1.1c-1.5 .7-3.3 1.6-5.5 2.7c-3.2 2.2-6.4 4.3-9.5 6.5c-3.1 2.2-6.2 4.5-9.5 7.1c-1.1 1-1.6 2.7-1.6 4.9c1.8 9 3.4 17.9 4.9 26.6c1.4 8.7 2.9 17.5 4.3 26.6c.7 4.7 1.1 9.4 1.1 14.1c0 4.7-0.2 9.6-0.5 14.7c-0.8 8-4.3 13.3-10.6 16c-6.4 2.7-13 4.1-19.9 4.1c-5.8 0-11.7-1.1-17.9-3.3c-6.1-2.1-10-6.7-11.4-13.6c-3.6-13.7-7.5-27.3-11.7-40.7c-2.4-7.7-4.4-15.4-6-23.3c-4.5 2.5-9 4.7-13.3 6.5l-53.8 24.4c-1 0-1.6 1.3-1.6 3.8c0 10.9-1.3 21.8-4.1 32.9c-2.7 11-7 21-13 29.9c-6 8.8-13.5 16-22.5 21.4c-9.1 5.5-20 8.2-32.6 8.2c-5.8 0-12.7-0.9-20.7-2.7l-4.9-1.7c-6.1-2.9-9.2-7.9-9.2-15.2c.3-13.4 5.6-24.4 15.7-33.1c4.7-4 9.6-7.8 14.7-11.4c5.1-3.7 10.2-7.5 15.2-11.5c2.9-1.8 4.6-4.1 4.9-7c.7-7.3 1.3-14.3 1.6-21.2c.4-6.9 0-13.8-1-20.6c-1.9-11.6-6-23.4-12.5-35.4c-0.4-0.3-0.6-0.6-0.6-0.8c0-0.2-0.2-0.4-0.5-0.8c-5.1-6.1-9.3-9.2-12.5-9.2c-1.8 0-3.5 .3-4.9 1.1c-1.3 .6-2.9 1.4-4.7 2.3l-0.7 .4c-3.3 2.2-6.5 4.3-9.6 6.5c-3 2.2-6.2 4.5-9.5 7.1c-1 1-1.6 2.7-1.6 4.9c1.8 9 3.4 17.9 4.9 26.6c1.4 8.7 2.9 17.5 4.3 26.6c.8 4.7 1.1 9.4 1.1 14.1c0 4.7-0.1 9.6-0.5 14.7c-0.7 8-4.3 13.3-10.6 16c-6.3 2.7-13 4.1-19.8 4.1c-5.8 0-11.8-1.1-18-3.3c-6.1-2.1-9.9-6.7-11.4-13.6c-1.4-5.4-2.9-10.9-4.4-16.3l-0.4 .6l-0.6 .8c-5.1 7.1-9.2 12.8-12.5 17.1l-1.1 1.1c-5.1 9.4-10.9 17.9-17.6 25.5c-6.7 7.6-13.7 15.1-21 22.3c-6.8 6.9-15.4 10.9-25.5 12c-8 0-15.3-0.8-22-2.2c-6.7-1.5-13.5-4.5-20.4-9.2c-2.5-1.9-4.9-3.6-7-5.2c-2.2-1.6-4.6-3.2-7.1-4.6c-12.3-8-20.5-19.2-24.5-33.7c-0.7-3.6-1.5-7.3-2.4-10.9c-0.9-3.6-1.7-7.2-2.4-10.8c0-1.1-0.2-2-0.6-2.8c-4.3 7.3-8.3 13.6-11.9 19.1c-3.7 5.4-7.7 9.8-12.3 13.3c-4.5 3.4-10 6-16.5 7.8c-6.5 1.9-14.7 2.8-24.5 2.8c-8.3 0-16.4-1-24.2-3c-7.7-2-14.6-5.2-20.6-9.5c-6-4.4-11-9.9-14.9-16.6c-4-6.7-6.6-14.6-7.6-23.6c-0.2-1.3-0.4-2.6-0.5-4c-3.7 4.7-7.4 9.6-11 14.8c-5.4 6.9-11.3 13.2-17.6 18.8c-6.4 5.6-12.8 11.1-19.3 16.5c-5.1 4-10.2 6.7-15.5 7.9c-5.2 1.3-10.8 1.9-16.6 1.9c-19.9 0-36.8-5.3-50.8-16c-7.7-6-13.9-13.3-18.6-22.1c-3 4-5.5 7.5-7.7 10.4l-1.1 1.1c-5.1 9.4-10.9 17.9-17.6 25.5c-6.7 7.6-13.7 15.1-21 22.3c-6.8 6.9-15.4 10.9-25.5 12c-8 0-15.3-0.8-22-2.2c-6.7-1.5-13.5-4.5-20.4-9.2c-2.5-1.9-11.6-8.4-14.1-9.8c-12.3-8-20.5-19.2-24.4-33.7c-0.8-3.6-1.6-7.3-2.5-10.9c-0.9-3.6-1.7-7.2-2.4-10.8c0-1.1-0.2-2-0.6-2.8c-4.3 7.3-8.3 13.6-11.9 19.1c-3.7 5.4-7.7 9.8-12.3 13.3c-4.5 3.4-10 6-16.5 7.8c-6.5 1.9-14.7 2.8-24.5 2.8c-8.3 0-16.4-1-24.2-3c-7.7-2-14.6-5.2-20.6-9.5c-6-4.4-11-9.9-14.9-16.6c-0.9-1.4-1.7-2.9-2.4-4.4c-2.1 2-4.4 3.8-6.9 5.5c-4 2.7-7.9 5.5-11.9 8.4c-6.5 4-13 7.8-19.3 11.4c-6.4 3.6-12.8 7.4-19.3 11.4c-9.8 5.5-20.1 8.2-31 8.2c-22.4 0-41.5-5.5-57.3-16.6c-15.7-11-25.3-28.3-28.5-51.9c-0.3-2-0.6-4-0.8-6c-5.6 7.6-11.1 15.4-16.6 23.4c-1.1 1.7-2.2 3.3-3.3 5c-1.1 1.6-2.1 3.2-3.2 4.8c-2.2 3.2-4.4 6.3-6.5 9.2c-8.7 13.1-21.4 19.6-38.1 19.6c-13.4 0-26-2.4-38-7.1c-12-4.7-22.6-11.8-32.1-21.2c-3.2 2.9-6.5 5.7-9.7 8.4c-3.3 2.8-6.6 5.6-9.8 8.5c-6.9 5.4-13.4 9.7-19.6 12.7c-6.1 3.1-13.6 4.7-22.2 4.7c-8.4 0-15.7-1.7-22-4.9c-6.4-3.3-12.1-8.5-17.2-15.8c-2.9-5.1-5.8-10.1-8.9-15.2c-3.1-5.1-5-10.7-5.7-16.8c-0.9-7.8-1-15.3-0.2-22.7c-1.8 2.3-3.9 4.4-6.1 6.4c-4.1 3.6-8.4 7.4-12.7 11.4c-8.4 7.2-17 13.5-25.9 19c-8.8 5.4-17.8 11.2-26.8 17.4c-11.3 7.6-24.1 11.4-38.6 11.4c-8.4 0-16.5-0.6-24.5-1.7c-7.9-1-15.2-3.2-21.7-6.5c-6.5-3.2-12.1-7.9-16.8-13.8c-4.8-6-8-13.7-9.8-23.1c-4.7-25-2.9-50.4 5.4-76.1c2.2-7.6 5.5-14.8 10.1-21.7c4.5-6.9 9.7-13 15.7-18.2c6-5.3 12.6-9.4 19.8-12.5c7.3-3.1 15.1-4.6 23.4-4.6c5.1 0 10.5 .3 16.3 1.1c5.8 .7 11.2 1.6 16.3 2.7c4.7 1.4 8.5 3.5 11.4 6.2c2.9 2.7 4.7 6.6 5.4 11.7c.4 1.5 .2 4-0.5 7.6c-1.4 8.7-3.9 16.5-7.3 23.4c-3.5 6.9-9.4 12.5-17.7 16.8c-5.1 2.6-9.9 5.2-14.4 7.9c-4.5 2.7-9.5 4.6-14.9 5.7c-1.5 0-9.2 5.8-9.2 7.6c-0.4 5.1-2.4 6.6-2.6 11.7c-0.2 5 1.7 8.8 2.1 13.8c.3 5.1 3.6 9.9 4.5 14.4c.9 4.6 6.1 9.4 6.8 14.4c0 1.1 .3 2.3 .8 3.6c.6 1.2 1.2 2.4 1.9 3.5c1.1 1.8 2.6 2.7 4.4 2.7c.7 0 3.1-1 7.3-3c4.2-2 8.9-4.1 14.1-6.5c5.3-2.3 10.3-4.7 15-7.1c4.7-2.3 7.8-3.8 9.2-4.6c6.9-4 13.6-8.1 20.1-12.5c6.5-4.3 12.9-8.8 19-13.5c4-3.3 7.6-6.7 10.9-10.1c3.3-3.4 6.7-6.8 10.3-10c.8-0.7 1.6-1.4 2.4-2.1l1.4-1.2c1.3-1.1 2.5-2.2 3.8-3.3c.2-0.2 .5-0.4 .7-0.6c.3-0.2 .6-0.5 .9-0.8c7.5-16.1 17.7-29.1 30.7-39c14-10.7 31.1-16.1 51.4-16.1c5.8 0 11.2-0.1 18.4 1.7c1.8-8.3 4.5-15.6 5.8-23.9c1.2-8.4 2.8-16.7 4.6-25c2.2-11.6 4.5-23.1 7-34.5c2.6-11.4 5.8-22.8 9.8-34c2.9-8.3 7.7-16.2 14.4-23.6c6.7-7.5 15-11.2 24.7-11.2c6.9 0 12.1 1.4 15.5 4.1c3.5 2.7 7 7 10.6 12.8c2.2 5 3.6 10.1 4.1 15.2c.5 5.1 .6 10.1 .3 15.2c-0.8 9.8-2.4 19.4-4.9 28.8c-2.6 9.4-5.6 18.8-9.3 28.2c-2.1 5.5-4.9 10.6-8.4 15.3c-3.4 4.7-7 9.4-10.6 14.1c-1.8 2.5-2.5 4.9-2.1 7c1 13.8 2.2 27.4 3.5 40.8c1.3 13.4 2.2 27 3 40.7c.7 9.5 2.1 18.6 4 27.5c2 8.8 3.9 18 5.8 27.4c.3 1.8 .8 3.4 1.6 4.6c.7 1.3 1.4 2.8 2.2 4.6c13.7-8.3 24.5-17.2 32.3-26.8c7.8-9.6 15.3-21.3 22.5-35.1c1.1-2.5 2.7-5.2 4.6-8.1c.3-0.4 .6-0.8 .9-1.2l.1-0.2l.2-0.2c.1-0.2 .2-0.3 .3-0.5c.1-0.1 .3-0.3 .4-0.5c2.2-17.6 7.8-34.9 16.9-51.8c5.4-10.5 13.6-15.7 24.4-15.7c4 0 8.4 .9 13.3 2.7c4.9 1.8 7.7 5.1 8.5 9.8c1 4.3 2 8.7 2.9 13c1 4.4 1.6 8.7 1.9 13.1c.8 11.5 1.3 23.1 1.7 34.7c.3 11.6 .9 23.2 1.6 34.8c.7 9 1.8 17.9 3.3 26.6c1.1 6.9 4.3 13.4 9.7 19.6c1.1 1.4 2.6 2.1 4.4 2.1h1.6c2.6-1 5-1.9 7.4-2.7c2.3-0.7 4.6-1.6 6.8-2.7c6.5-3.2 13-6.4 19.5-9.5c6.5-3.1 12.9-6.6 19-10.6c4.7-2.5 9-5.5 12.8-9c3.8-3.4 7.9-6.6 12.2-9.5c.6-0.4 1.2-0.7 1.8-1.1c-0.1-0.3-0.1-0.5-0.1-0.7l-0.1-0.3c-1-7.6-0.9-15.1 .6-22.3c1.4-7.2 3.8-14.3 7.1-21.2c5-9.8 11-19.5 17.9-29.1c6.9-9.6 14.6-18.2 23.3-25.8c8.7-7.6 18.2-13.7 28.6-18.4c10.3-4.7 21.2-7.1 32.8-7.1c6.2 0 12.3 .5 18.5 1.6c6.2 1.1 11.8 3.5 16.8 7.1c3.7 2.5 4.4 6 2.2 10.3c-1.4 2.2-2.7 4.5-3.8 6.8c-1.1 2.4-2.3 4.6-3.8 6.8c-1.1 1.8-2.7 2.7-4.9 2.7c-1.4 0-2.9-0.7-4.3-2.2c-2.2-2.9-3.6-4.8-4.4-5.9c-0.7-0.8-5.2-2.4-5.9-2.8c-10.9 9.5-14.4 10.4-35 29.9c-12 13.6-16.6 31-16.6 43.8c-4 13.8-1.7 28.5 10.8 43.7c4-2.5 8.2-6.3 12.8-11.4c4.5-5.1 9-10.6 13.6-16.6c4.5-6 8.6-11.9 12.2-17.9c3.6-6 6.5-11 8.7-14.9c2.9-4 5.3-8.2 7.3-12.5c2-4.4 3.4-9.1 4.1-14.2c0-1.1 .2-2.1 .5-3c.4-0.9 .8-1.9 1.1-2.9c4-9.8 10.5-14.7 19.6-14.7c4.3 0 8.2 .9 11.7 2.7c3.4 1.8 5.7 5.1 6.8 9.8c.7 4 1.3 7.9 1.9 11.9c.5 4 1.1 8 1.9 12c1.4 11.6 2.7 23.1 3.8 34.5c1 11.4 2.5 22.9 4.3 34.5c.7 7.2 2.4 14.2 4.9 20.9c2.5 6.7 5.6 13.1 9.2 19.3c1.8 2.9 3.8 5.4 6 7.6c2.2 2.2 4.2 4.7 6 7.6c6.1-5.4 12.2-10.6 18.2-15.5c6-4.9 11.3-10.6 16-17.1c4.4-6.2 9.1-12 14.1-17.7c5.1-5.6 16.5-19.7 18.2-22c-0.1-0.6 1-3.7 .9-4.3c-2.6-13.4-4-26.8-4.4-40.2c-0.4-13.4-0.2-27 .6-40.8c.3-8.3 1.3-18.2 2.9-29.8c1.7-11.6 4.2-23.7 7.6-36.2c3.5-12.5 7.7-25 12.5-37.5c4.9-12.5 10.7-23.6 17.4-33.4c6.7-9.7 14.3-17.6 22.8-23.6c8.6-6 17.9-9 28-9c5.5 0 10.3 .8 14.7 2.2c4.3 1.5 6.9 5.4 7.6 12c.7 2.9 1.2 5.7 1.4 8.4c.1 2.7 .4 5.5 .8 8.4c-0.8 22.8-5.2 44.6-13.3 65.2c-8.2 20.6-17.5 40.7-28 60.3c-1.5 2.5-2.4 4.9-2.7 7.1c-0.4 2.1-0.6 4.7-0.6 7.6c1.5 16.3 2.6 32.5 3.3 48.6l.6 14.6c.5 11.3 1.1 22.6 1.6 34c0 1.5 .2 3.7 .8 6.8c.5 3.1 1.1 6.3 1.9 9.5c.7 3.3 1.9 6.1 3.5 8.4c1.6 2.4 3.5 3.6 5.7 3.6c1.1 0 3.4-0.9 7.1-2.7c7.2-5.1 14.3-10.4 21.2-15.8c6.8-5.4 13.2-11.6 19-18.5c1.8-2.9 3.8-5.5 6-7.8c2.1-2.4 4.3-4.8 6.5-7.4c4-4.3 7.3-8.9 10-13.8c2.7-4.9 5.2-9.9 7.4-15c2-7.2 6-12.9 12-17.2c3-4.9 6.2-9.7 9.7-14.6c6.9-9.6 14.7-18.2 23.3-25.8c8.7-7.6 18.3-13.7 28.6-18.4c10.3-4.7 21.3-7.1 32.8-7.1c6.2 0 12.4 .5 18.5 1.6c6.2 1.1 11.8 3.5 16.9 7.1c3.6 2.5 4.3 6 2.1 10.3c-1.4 2.2-2.7 4.5-3.8 6.8c-1.1 2.4-2.3 4.6-3.8 6.8c-1.1 1.8-2.7 2.7-4.9 2.7c-1.4 0-2.9-0.7-4.3-2.2c-2.2-2.9-3.6-4.8-4.4-5.9c-0.7-0.8-1.4-1.3-2.1-1.7c-10.9 9.5-20.3 20.3-28.3 32.6c-8 12.3-13.9 25.4-17.9 39.1c-4 13.8-3.5 28.7 1.6 44.6c4-2.5 8.3-6.3 12.8-11.4c4.5-5.1 9-10.6 13.6-16.6c4.5-6 8.6-11.9 12.2-17.9c3.6-6 6.5-11 8.7-14.9c2.9-4 5.3-8.2 7.3-12.5c2-4.4 3.4-9.1 4.1-14.2c0-1.1 .2-2.1 .5-3c.4-0.9 .8-1.9 1.1-2.9c4-9.8 10.5-14.7 19.6-14.7c4.3 0 8.2 .9 11.7 2.7c3.4 1.8 5.7 5.1 6.8 9.8c.7 4 1.3 7.9 1.9 11.9c.5 4 1.1 8 1.9 12c1.4 11.6 2.7 23.1 3.8 34.5c1 11.4 2.5 22.9 4.3 34.5c.7 7.2 2.4 14.2 4.9 20.9c2.5 6.7 5.6 13.1 9.2 19.3c1.8 2.9 3.8 5.4 6 7.6c2.2 2.2 4.2 4.7 6 7.6c6.1-5.4 12.2-10.6 18.2-15.5c6-4.9 11.3-10.6 16-17.1c4.4-6.2 9.1-12 14.1-17.7c5.1-5.6 9.8-11.5 14.2-17.6c4.1-5.4 8.1-10.8 12-16.2l-0.4-1.2c-4.1-13.4-7.1-27.2-8.9-41.3c-1.8-10.9-2.6-21.7-2.5-32.6c.2-10.9 1.2-21.7 3-32.6c2.9-19.2 7.7-37.4 14.4-54.6c6.7-17.2 14.8-34.3 24.2-51.3c4.7-8.4 10.4-15.2 17.1-20.7c6.7-5.4 14.8-9 24.2-10.8c1.8-0.8 3.3-1.1 4.6-1.1h9.5c1.5 0 2.9 .2 4.4 .5c10.5 1.5 15.2 7.6 14.1 18.5c-0.7 10.5-1.6 21.5-2.5 33.1c-0.9 11.6-2.2 22.5-4 32.6c-1.8 9.4-4.7 18.7-8.5 27.7c-3.8 9.1-8.9 17.4-15.4 25c-1.8 1.8-3.9 3.7-6.3 5.5c-2.3 1.8-4.6 3.6-6.8 5.4c-1.4 .7-2.2 1.4-2.2 2.2c-0.3 4-0.4 8-0.2 12.2c.2 4.2 .2 8.6 .2 13.3c1.9-1.1 2.6-1.6 2.2-1.6c5.1-4.7 10.5-7.9 16.3-9.5c5.8-1.7 11.8-2.5 18-2.5c9.7 0 19 1.4 27.7 4.1c8.7 2.7 16.4 8.1 23.3 16c6.9 8 12.8 16.4 17.7 25.3c4.9 8.9 8 18.5 9.5 29.1c0 .7 .1 1.3 .3 1.9c.1 .5 .4 1.3 .8 2.4c6.1-2.9 12.2-5.5 18.2-7.9c5.9-2.3 12-5 18.2-7.9c2.5-1 4.9-2.2 7-3.5c2.2-1.3 4.4-2.4 6.6-3.5c5.4-1.8 10.3-4.2 14.6-7.1c.8-0.5 1.7-1.1 2.5-1.6Zm-624-69.6c.7-13.7 1.6-27.7 2.7-41.8c1.1-14.1 2.5-28.1 4.4-41.8c1-6.5 2.8-12.8 5.1-18.8c2.4-5.9 5-11.8 7.9-17.6c.7-1.5 1.6-2.6 2.7-3.6c1.1-0.9 2.2-1.7 3.3-2.4c.7 1.1 1.6 2.3 2.7 3.5c1.1 1.3 1.8 2.7 2.2 4.1c.3 3.3 .6 6.7 .8 10.3c.2 3.7 .1 7.3-0.3 10.9c-1.8 17-5.4 33.4-10.9 49.2c-5.4 15.7-11.9 31.2-19.5 46.4c0 .4-0.4 .9-1.1 1.6Zm469.4-120c0 1.1 .4 2.7 1.1 4.9c0 9.4-0.2 19-0.6 28.8c-0.3 9.7-1.3 19.3-2.9 28.8c-1.7 9.4-4.1 18.5-7.4 27.4c-3.2 8.9-7.9 17.1-14.1 24.7c-0.4 .7-0.7 1.3-1.1 1.6c-0.4 .4-0.7 .9-1.1 1.7c.4 0-0.2 .3-1.6 1.1c-0.4-6.6 .3-16 2.2-28.3c1.8-12.3 4.1-24.8 7-37.5c2.9-12.7 6.1-24.1 9.5-34.2c3.5-10.1 6.5-16.5 9-19Zm250.5 4.9c-0.8-2.2-1.1-3.8-1.1-4.9c-2.6 2.5-5.6 8.9-9 19c-3.4 10.1-6.6 21.5-9.5 34.2c-2.9 12.7-5.2 25.2-7.1 37.5c-1.8 12.3-2.5 21.7-2.1 28.3c1.4-0.8 1.9-1.1 1.6-1.1c.3-0.8 .7-1.3 1.1-1.7c.3-0.3 .7-0.9 1.1-1.6c6.1-7.6 10.8-15.8 14.1-24.7c3.2-8.9 5.7-18 7.3-27.4c1.7-9.5 2.7-19.1 3-28.8c.4-9.8 .6-19.4 .6-28.8Zm-1302.9 19c0-6.5-2.1-12.5-6.5-17.9c-4 15.2-6.8 30.4-8.4 45.6c-1.6 15.2-2.4 30.6-2.4 46.2c1-0.8 1.6-1.5 1.6-2.2c5.1-11.6 9.1-23.3 12.2-35c3.1-11.8 4.3-24 3.5-36.7Zm88.1 90.2c1.8 .7 3.4 1.1 4.8 1.1c1.5 0 2.9 .1 4.4 .5c8.3-0.4 15.4-2.5 21.2-6.5c5.8-4 10.5-9.3 14.1-15.8c2.9-5.4 3.4-11.6 1.4-18.4c-2-6.9-7.2-11.6-15.5-14.2c-2.2-0.7-4.4-1.2-6.5-1.6c-2.2-0.4-4.4-0.5-6.6-0.5c-6.1 0-11.7 1.3-16.8 4c-5.1 2.7-8.5 7.4-10.3 13.9c-0.8 2.9-1.3 5.7-1.7 8.4c-0.3 2.7-0.9 5.5-1.6 8.4c-0.7 5.1 0 9.4 2.2 13.1c2.2 3.6 5.8 6.1 10.9 7.6Zm-379.3 24.1c-1.4 2.4-3 4.8-4.9 7.4c-2.1 4.3-3.8 8.9-4.8 13.8c-1.1 4.9-2 9.9-2.8 15c2.2-1.5 4.2-2.7 6-3.8c1.3-0.8 2.5-1.5 3.8-2.3l1.6-1c6.2-3.6 10.2-9.2 12-16.8c.7-1.8 1.3-3.6 1.6-5.2c.4-1.6 .6-3.3 .6-5.2c0-3.2-0.6-6.1-1.7-8.6c-1-1.5-2.1-2.2-3.2-2.2c-1.1 0-2.2 .7-3.3 2.2c-1.8 2.1-3.4 4.4-4.9 6.7Zm1823.3 7.4c1.8-2.6 3.5-5 4.9-7.4c1.5-2.3 3.1-4.6 4.9-6.7c1.1-1.5 2.2-2.2 3.3-2.2c1 0 2.1 .7 3.2 2.2c1.1 2.5 1.7 5.4 1.7 8.6c0 1.9-0.2 3.6-0.6 5.2c-0.3 1.6-0.9 3.4-1.6 5.2c-1.8 7.6-5.8 13.2-12 16.8l-5.4 3.3c-1.8 1.1-3.8 2.3-6 3.8c.7-5.1 1.7-10.1 2.7-15c1.1-4.9 2.8-9.5 4.9-13.8Zm-1618.5 92.3c0 0 1.9-3 1.1-4.8c0-5.1-0.1-10.4-0.5-15.8c-0.4-5.4-0.4-10.7 0-15.8c.4-6.1 .8-12.1 1.4-17.9c.5-5.8-1.3-19.3-2.2-19.8c-0.9-0.6-1.9-0.8-3-0.8c-1.8 0-4 1.2-6.5 3.8c-4.4 3.6-8.4 8.4-12.3 14.4c-3.8 5.9-7 12.2-9.7 18.7c-2.8 6.5-4.9 13.2-6.6 20.1c-1.6 6.9-2.8 13.1-3.5 18.5c-1.4 10.1-0.2 20.8 3.8 32c7.3-4.7 14.1-9.5 20.7-14.4c6.5-4.9 12.3-10.9 17.3-18.2Zm1147.5 69c-2.2-5-2.5-9.9-1.1-14.6c1.8-4.7 4.3-8.7 7.6-12c3.3-3.2 6.9-6.7 10.9-10.3c-1.8 7.2-3.9 13.9-6.3 20.1c-2.3 6.1-6 11.8-11.1 16.8Zm248.3-14.6c-1.5 4.7-1.1 9.6 1.1 14.6c5-5 8.7-10.7 11.1-16.8c2.4-6.2 4.4-12.9 6.2-20.1c-3.9 3.6-7.6 7.1-10.8 10.3c-3.3 3.3-5.8 7.3-7.6 12Z" fill="url(#Gradient-0)"/></clipPath><clipPath id="ClipPath-2"><rect width="2125.2" height="1955.8" transform="translate(-97.9,0) scale(.917,1.058) translate(174.6,280.9)"/></clipPath></defs><g transform="translate(-226.7,-955.3) scale(1.135,2.676)"><g clip-path="url(#ClipPath-1)"><g transform="translate(528.7,454) scale(.806,.338)"><path d="M2066 1508.5c12.7-95 54.8-317.2 19.6-318.8c-37.5-1.7-62.5 95.2-81.6 169.6c-22.3 86.6-31.5 339.3 39.6 370.1c14.1 11.4 114.9-182.1 126.9-296.8c4.4-42.6 36-134.9 93-143.3" fill="none" stroke="#660f11" stroke-dasharray="23000" stroke-width="86px"/></g><g transform="translate(528.7,454) scale(.806,.338)"><path d="M2274.1 1316c30.1 10.6 28 84.2 29.3 158.8c.7 38.9 4.5 71.9-4.2 127c-9.7 62.6-32.5 145.8-39.3 153.6c-12.9 14.7-40.1-121.1-39.2-176c1.2-78.5 14-171.9 48.1-238.6" fill="none" stroke="#660f11" stroke-dasharray="23000" stroke-width="83.6px"/></g><g transform="translate(199.7,357) scale(.881,.374)"><path d="M2446.8 1461.5c63.8-6.9 73-3.9 120.5-93.8c13.8-26.1 19.2-91.6 23.3-123.1c6.2-48.5 8.1-53.7 5.9-100.6c-2.6-53.7-32.3-237.5-59.6-244.9" fill="none" stroke="#660f11" stroke-dasharray="23000" stroke-width="22.9px"/></g><g transform="translate(528.7,454) scale(.806,.338)"><path d="M2411.1 789.1c-10 3.6-42.5 137.2-46.8 196.3c-7.5 100.9 4.2 318.7 .1 459.1c-1 34 .7 105.1-1.1 170.1c-2.7 101.3 15.4 210.5 34.5 181.4c8.3-12.7 42.2-153.4 58.4-253.7c8.3-52 5.3-53.3 13.9-151" fill="none" stroke="#660f11" stroke-dasharray="23000" stroke-width="93.1px"/></g><g transform="translate(528.7,454) scale(.806,.338)"><path d="M2527.8 1463.4c17.7-24.5 46.2-158.6 25.2-156.1c-19.6 2.3-8.7 125.4-12.2 247.8c-3.9 140.7 39.1 223.4 72.8 209.1c40.2-17.2 80.1-144.9 70.4-221.4c-2.4-19.1 4.1-53.3 10-77.9c14.6-60.8 14.2-58.9 21.3-89.2c15.2-65.5 60.8-169.2 126.4-159.2c52.7 1 52.1 20.3 52.1 20.3" fill="none" stroke="#660f11" stroke-dasharray="23000" stroke-width="86.5px"/></g><g transform="translate(528.7,454) scale(.806,.338)"><path d="M2892.1 1341.8c0 0-38.8-111-63.4-87.6c-27.6 26.4-63.8 196-70 267.2c-5.5 64.6-4.9 195.3 32.6 197.9c16 1.1 35.9-106.8 52.2-197.9c19.8-109.9 25.4-147.1 25.4-147.1" fill="none" stroke="#660f11" stroke-dasharray="23000" stroke-width="100.4px"/></g><g transform="translate(528.7,454) scale(.806,.338)"><path d="M2904.7 1316c-9.9 34.7-9 266 1.8 352.8c4 31.6 29.6 202.5 52.2 219.7" fill="none" stroke="#660f11" stroke-dasharray="23000" stroke-width="86.3px"/></g><g transform="translate(528.7,454) scale(.806,.338)"><path d="M2984.7 1842.2c22.6-29.3 58-80.9 63.2-226.4" fill="none" stroke="#660f11" stroke-dasharray="23000" stroke-width="51.1px"/></g><g transform="translate(528.7,454) scale(.806,.338)"><path d="M3033.8 1743.3c33-44.9 45.8-251.5 68.1-349.1c8.1-35.6 26.6-50 40.2-92.1" fill="none" stroke="#660f11" stroke-dasharray="23000" stroke-width="21.6px"/></g><g transform="translate(528.7,454) scale(.806,.338)"><path d="M3148.3 1303.8c23.7-109.3 40.9-235.8 41.2-275.3c.4-57.8 3.8-228.2-4.9-212.7" fill="none" stroke="#660f11" stroke-dasharray="23000" stroke-width="33px"/></g><g transform="translate(528.7,454) scale(.806,.338)"><path d="M3167.4 816.8c-8.7 15.6-67.2 345-70.7 522.2c-3.6 181.7 4.7 444.3 70.7 422c50.7-17 10.6-145 85.7-379.1c23.4-72.8 91.4-178.8 140.1-171.1" fill="none" stroke="#660f11" stroke-dasharray="23000" stroke-width="96.8px"/></g><g transform="translate(528.7,454) scale(.806,.338)"><path d="M3393.2 1210.8c23.6-20.1 37 125.2 37 125.2c0 0-36.7-111.7-47.8-85.5c-14.1 33.5-57 159-74.3 294.2c-17.8 139.7 31.3 280.6 48.3 225c1.5-5.2 3.4-11 5.5-17.4c31.2-94.5 117.2-324.2 92.7-438.6c-14-65.5-6.4 551.6 52.5 561.8c-3.6-36.7 89.3-253.7 55.1-321" fill="none" stroke="#660f11" stroke-dasharray="23000" stroke-width="96.7px"/></g><g transform="translate(528.7,454) scale(.806,.338)"><path d="M3609 1620.9c5.2-46.2 28.1-56.1 34.4-154.2c6.9-108.1 20.6-160.4 44.1-193.4" fill="none" stroke="#660f11" stroke-dasharray="23000" stroke-width="13.2px"/></g><g transform="translate(528.7,454) scale(.806,.338)"><path d="M3696.8 1272.7c23.1-33.5 49.7-393 38.1-477.3" fill="none" stroke="#660f11" stroke-dasharray="23000" stroke-width="27.8px"/></g><g transform="translate(528.7,454) scale(.806,.338)"><path d="M3732.1 829.9c-37.2 97.7-61.8 232.2-80.3 334.2c-24.2 134.1 15.9 547.3 27 529.7" fill="none" stroke="#660f11" stroke-dasharray="23000" stroke-width="86px"/></g><g transform="translate(528.7,454) scale(.806,.338)"><path d="M3662 1724.6c14.6-22.5 1.2-259.3 12.7-328.7c4.8-28.8 77.3-92.4 83-64.4c15.7 77.4 33.8 78.3 37.5 183.4c4.8 137.7 3.9 349.1-96.3 377.8" fill="none" stroke="#660f11" stroke-dasharray="23000" stroke-width="71.4px"/></g><g transform="translate(528.7,454) scale(.806,.338)"><path d="M3756 1873.5c-42 2.1-64.6-39.4-47.3-124.8c0-72.9 89.3-166.6 89.3-166.6c0 0 11.6-43.7 73.1-106" fill="none" stroke="#660f11" stroke-dasharray="23000" stroke-width="86px"/></g><g transform="translate(528.7,454) scale(.806,.338)"><path d="M3889.9 1501.9c42.8-38.1 67.5-79 67.3-132.1c-0.2-35.9 8.7-69.9 37.9-97" fill="none" stroke="#660f11" stroke-dasharray="23000" stroke-linejoin="bevel" stroke-miterlimit="4" stroke-width="17.6px"/></g><g transform="translate(528.7,454) scale(.806,.338)"><path d="M4002.4 1268.4c22.2-16.2 33.6-151.4 40.7-241.2c5.5-68.5-2.1-162.6-5.8-230.8" fill="none" stroke="#660f11" stroke-dasharray="23000" stroke-width="22.4px"/></g><g transform="translate(528.7,454) scale(.806,.338)"><path d="M4069.2 815.8c-62 9.9-67.7 71-86.6 209.9c-11.5 85-27.3 172.6-27.3 291.6c0 80.4 6.9 185 8.5 270.1c1.9 100.3 17.2 134.8 17.2 134.8c0 0-31.8-253.9 0-324.4c17.3-38.4 68.5-79.2 88.9-58c20.5 21.3 34.2 100.9 33.6 185.5c-0.8 100.4-17.3 345.7-44.7 348.9c-38.3 4.6-50.3-87.5-40.8-133.1c9.8-47.1 52.5-101.2 86.8-145.5c35.9-46.5 101.2-103.3 62.4-130.7" fill="none" stroke="#660f11" stroke-dasharray="23000" stroke-width="86px"/></g><g transform="translate(528.7,454) scale(.806,.338)"><path d="M4215.2 1489.7c32.2-32.5 58.2-27.8 86.5-45.6" fill="none" stroke="#660f11" stroke-dasharray="23000" stroke-width="32.8px"/></g><g transform="translate(528.7,454) scale(.806,.338)"><path d="M4303.8 1446.9c24.5-4.1 45.8-58.7 52.1-77.7c12-36.6 4.6-58.1 2.4-92.4c-2.1-31.4-23.2-85.3-37.8-79.4" fill="none" stroke="#660f11" stroke-dasharray="23000" stroke-width="42.9px"/></g><g transform="translate(528.7,454) scale(.806,.338)"><path d="M4337.6 1204.6c-14.6 6-51 70.3-58.5 114.4c-10.7 63-36.5 410.2 27.8 404.2c8-0.8 61.3-91.1 108.2-187.8" fill="none" stroke="#660f11" stroke-dasharray="23000" stroke-width="86px"/></g><g transform="translate(528.7,454) scale(.806,.338)"><path d="M4439.9 1547.9c21.3-42.9 31.4-93.5 31.8-130.6c1.9-163.1 19-512.1 16.6-519.9" fill="none" stroke="#660f11" stroke-dasharray="3000" stroke-width="27.5px"/></g><g transform="translate(528.7,454) scale(.806,.338)"><path d="M4488.3 897.4c-2.5-7.8 2.7 247.1-5 332.6c-6.4 71.6-3.4 241.1-5.7 388.5c-1.7 114.7 22.6 216.1 46.7 242.6c51.6 57 82.7-131 94.8-192.9c9.8-50 57.8-320.9 74.6-388.6" fill="none" stroke="#660f11" stroke-dasharray="23000" stroke-width="76.9px"/></g><g transform="translate(528.7,454) scale(.806,.338)"><path d="M2578 1246.3c-1.4-25-102.4-11.2 48.4-378" fill="none" stroke="#660f11" stroke-dasharray="3000" stroke-width="86px"/></g><g transform="translate(528.7,454) scale(.806,.338)"><path d="M4641.4 1145.1c1.5-6-380.6 23.1-405-14.2" fill="none" stroke="#660f11" stroke-dasharray="3000" stroke-width="86px"/></g></g></g><g clip-path="url(#ClipPath-2)" transform="translate(-68.6,-213.3) scale(1.102,1.098)"><g><path d="M1610.3 246.2c0 0-11.2 1189.5-27.5 1571.9c0 0 32.2 99.2 73.7-18.8c0 0-6-1274.6-17.8-1539l-28.4-14.1Z" fill="url(#Gradient-1)" fill-rule="nonzero"/><path d="M1638.7 260.3c0 0 24.9 1255.8 9.5 1562.6c0 0 23.3 83.4 59.9 17.4c36.7-66.2 46.6-7.9 54.9 6.2c8.2 14.2-3.6-996.1-45-1567.3l-79.3-18.9Z" fill="url(#Gradient-2)" fill-rule="nonzero"/><path d="M1710.9 217.8c0 0 12.2 1413.2 5.1 1606.7c0 0 35.1 55.1 62.4-11c0 0-20.2-1219.6-41.5-1578.4l-26-17.3Z" fill="url(#Gradient-3)" fill-rule="nonzero"/><path d="M1734.6 217.8c0 0 17.7 1553.2 13 1628.7c0 0 18.9 70.8 45-14.1c0 0-13.5-1375.4-30-1616.1l-28 1.5Z" fill="url(#Gradient-4)" fill-rule="nonzero"/><path d="M1758.2 222.6c0 0 29.6 1512.2 27.3 1630.2c0 0 11.8-25.2 30.7-1.5c0 0-30.7-1364.4-20.1-1628.7h-37.9Z" fill="url(#Gradient-5)" fill-rule="nonzero"/><path d="M1786.7 233.8c0 0 21.3 1435.2 27.2 1628.8c0 0 13 80.2 36.7 0c0 0-30-1455.7-32-1633.5l-31.9 4.8v-0.1Z" fill="url(#Gradient-6)" fill-rule="nonzero"/><path d="M1817.4 203.7c0 0 29.6 1491.8 29.6 1657c0 0 5.9-23.6 22.5-4.7c0 0-13-1463.5-17.8-1638.2l-34.3-14.1Z" fill="url(#Gradient-7)" fill-rule="nonzero"/><path d="M1641.9 210c0 0 4.7 1523.2-7.9 1642.8c0 0 15.8 34.7 33.1 3.2c0 0-13.4-1425.7-1.6-1642.9l-23.6-3.1Z" fill="url(#Gradient-8)" fill-rule="nonzero"/></g><g><path d="M433.8 251.5c0 0 11.2 1189.5 27.5 1572c0 0-32.3 99.1-73.7-18.9c0 0 5.9-1274.6 17.8-1539l28.4-14.1Z" fill="url(#Gradient-9)" fill-rule="nonzero"/><path d="M405.4 265.6c0 0-24.9 1255.8-9.5 1562.6c0 0-23.3 83.4-60 17.4c-36.7-66.1-46.5-7.9-54.8 6.2c-8.3 14.2 3.6-996.1 45-1567.3l79.3-18.9Z" fill="url(#Gradient-10)" fill-rule="nonzero"/><path d="M333.2 223.1c0 0-12.3 1413.2-5.2 1606.7c0 0-35.1 55.1-62.3-11c0 0 20.1-1219.6 41.4-1578.4l26.1-17.3Z" fill="url(#Gradient-11)" fill-rule="nonzero"/><path d="M309.5 223.1c0 0-17.8 1553.2-13 1628.7c0 0-18.9 70.8-45-14.1c0 0 13.4-1375.4 30-1616.1l28 1.5Z" fill="url(#Gradient-12)" fill-rule="nonzero"/><path d="M285.8 227.9c0 0-29.6 1512.2-27.2 1630.2c0 0-11.8-25.2-30.8-1.5c0 0 30.8-1364.4 20.2-1628.7h37.8Z" fill="url(#Gradient-13)" fill-rule="nonzero"/><path d="M257.4 239.2c0 0-21.3 1435.1-27.2 1628.6c0 0-13 80.3-36.7 0c0 0 30-1455.6 31.9-1633.4l32 4.8Z" fill="url(#Gradient-14)" fill-rule="nonzero"/><path d="M226.7 209c0 0-29.6 1491.8-29.6 1657c0 0-5.9-23.6-22.5-4.7c0 0 13-1463.5 17.7-1638.2l34.4-14.1Z" fill="url(#Gradient-15)" fill-rule="nonzero"/><path d="M402.2 215.3c0 0-4.7 1523.2 7.9 1642.8c0 0-15.8 34.7-33.1 3.2c0 0 13.4-1425.7 1.5-1642.9l23.7-3.1Z" fill="url(#Gradient-16)" fill-rule="nonzero"/></g><g opacity=".84"><path d="M1761.3 664.5c.2 .1 .3 .3 .5 .5c.2 .1 .3 .3 .5 .4c0 0 0 0 .1 .1c0 0 0-0.1 0 0c-0.7 67.2-13.3 102.3 5.2 89.5v377.4l-2.2-0.1c-2.2 0-4.1 4.4-4.1 9.9l-0.1 19.9c-0.1 3.9 .8 7.3 2.1 9v441.9l-115.3 386.9l1.1 1.6l-5.9-4.8l-5.4 34.1l22.5 3.5l1.6-22.4l-1-0.8l75.5-253.4l38 84.7l7.7-17.4l5.4 103.3l.2 17.8l12.2-0.5l-0.1-4.4l2-0.5l-7.5-142.9l17.9-40.1l73.4 246.2l-1.7 1.4l1.6 22.4l22.5-3.6l-5.4-34l-3.9 3.2l-115.7-388.4v-433.2c1.3-1.6 2.2-5 2.3-8.8v-7.8h1.6v5.8c0 1.8 .6 3.3 1.4 3.3h2.7c.7 0 1.3-1.5 1.3-3.3v-20.6c0-1.8-0.6-3.3-1.4-3.3l-2.7 .1c-0.7 0-1.3 1.4-1.3 3.3v7.2h-1.6l.1-4.7c0-5.5-1.8-10-4.1-10.1l-2-0.1v-385.8l6.2-4.3v-77.3c12.2-4.7 16.2-28.5 16.4-29.6c.2-1.4 .3-2.8 .3-4.2v-40.2l12.2-18.3l.7-73.1c2.6-12.3 6.8-35.1 7.2-50.9c.4-22.6-4.4-35-4.4-35c0 0-9.3-18.1-17.6-31.8l-1.1-4.7l-4.1-16.9l-33.7-4.8l-36.1 34.4l-21.2-18.8l-94.1-10.7l59.2 35l6.5 15c-3.3-4.5-61.9 56.1-61.9 56.1c0 0-5.3 .7-4.7 17.9l15.8 141.5c0 0 2.4 7.5 7.3 8.4c.3 0 .6 0 .9 0c2.5 0 14.7-1.5 27.8-3.3c-8.9 36-17.7 72.7-17.7 72.7c0 0-3.9 9.5 2.4 17.4l61.2 45.9c0 0 4.4-0.2 8.6-8.3c.2-0.5 .5-1 .7-1.5c2.6-5.6 18.3-43.4 30.9-73.9l3.5 31.1c.2 1.3 .4 2.4 .7 3.5c.8 2.4 2 3.9 3.3 3.8c.4 0 .8-0.1 1.2-0.4c.4-0.4 .8-0.9 1.2-1.5c.4-0.8 .7-1.7 1-2.8c.3-1.2 .5-2.4 .6-3.8l2.8-49Zm2 1110.5l-19.2-43l19.2-64.5v107.5Zm41.3-43l-12.3 27.5l-4.3-83.3l16.6 55.8Zm-41.2-1101.9l9.1 5.9l20.4-30.6v23.4c-0.9 3.7-3.7 12.6-9.6 14.2h-19.8l-0.4-8.8l.2-4.1Zm-65.3-190.1c-0.3 1-0.6 2-0.8 3l-0.3-2.9l1.1-0.1Z" fill-rule="nonzero"/><path d="M1740.8 479.5c-9.1-26.3-20.3-39-29.5-30c-13.5 13.4-17.3 69.5-8.4 125.4c8.9 55.5 27 89.9 40.6 76.9l-18.5-165.8c-0.6-7.4 1.7-13.4 4.8-12.3l11 5.8Z" fill="#e8df87"/><path d="M1732.2 475c-6.4-13.3-13.5-20.6-19.9-19.5l-1.3-5.7l-871.2 1449.2l3.3 .2c-0.5 5.8 1.4 11.8 5.7 17.9c25.5 36.1 128.7 62.1 230.6 58.1c90-3.6 148.8-29.4 143.6-60.3l520.8-1260.8l-18.8-168.1c-0.5-7.4 1.7-13 4.7-12.3l2.5 1.3Z" fill="#e8df87" fill-opacity=".71"/></g><path d="M305.5 659c-0.2 .2-0.3 .3-0.5 .5c-0.1 .1-0.3 .3-0.5 .4c0 0 0 0-0.1 .1c0 0 0 0 0 0c.7 67.2 13.4 102.4-5.2 89.5v377.4l2.2-0.1c2.3 0 4.1 4.4 4.2 9.9l.1 19.9c0 3.9-0.9 7.3-2.2 9v441.9l115.3 386.9l-1.1 1.6l5.9-4.8l5.4 34.1l-22.5 3.5l-1.6-22.4l1-0.8l-75.5-253.4l-37.9 84.7l-7.8-17.4l-5.4 103.3l-0.2 17.8l-12.1-0.5v-4.4l-2-0.5l7.5-142.9l-17.9-40.1l-73.4 246.2l1.8 1.4l-1.6 22.4l-22.6-3.5l5.4-34.1l3.9 3.2l115.8-388.4v-433.2c-1.4-1.6-2.3-5-2.3-8.8l-0.1-7.8h-1.6v5.8c0 1.9-0.6 3.3-1.4 3.3h-2.7c-0.7 0-1.3-1.5-1.3-3.3v-20.6c0-1.8 .7-3.3 1.4-3.3l2.7 .1c.8 0 1.4 1.5 1.4 3.3l-0.1 7.2h1.6v-4.7c-0.1-5.5 1.7-10 4-10.1l2-0.1v-385.8l-6.1-4.3v-77.3c-12.3-4.7-16.3-28.5-16.5-29.6c-0.2-1.3-0.3-2.8-0.3-4.2v-40.2l-12.2-18.3l-0.7-73.1c-2.5-12.3-6.8-35.1-7.1-50.9c-0.5-22.6 4.3-35 4.3-35c0 0 9.3-18.1 17.6-31.8l1.1-4.7l4.1-16.9l33.7-4.8l36.2 34.4l21.2-18.8l94-10.7l-59.2 35l-6.5 15c3.4-4.5 61.9 56.1 61.9 56.1c0 0 5.3 .7 4.7 17.9l-15.8 141.5c0 0-2.4 7.5-7.3 8.4c-0.3 .1-0.6 .1-0.9 .1c-2.4 0-14.7-1.6-27.8-3.4c8.9 36 17.7 72.8 17.7 72.8c0 0 3.9 9.4-2.4 17.3l-61.1 45.9c0 0-4.5-0.2-8.7-8.3c-0.2-0.5-0.5-0.9-0.7-1.5c-2.6-5.6-18.3-43.4-30.9-73.9l-3.5 31.1c-0.1 1.3-0.4 2.4-0.7 3.5c-0.8 2.4-2 3.9-3.3 3.8c-0.4 0-0.8-0.1-1.1-0.4c-0.5-0.3-0.9-0.9-1.3-1.5c-0.4-0.8-0.7-1.7-1-2.8c-0.3-1.1-0.5-2.4-0.5-3.8l-2.9-49Zm-2 1110.5l19.2-43l-19.2-64.5v107.5Zm-41.3-43l12.3 27.5l4.4-83.3l-16.7 55.8Zm41.3-1101.9l-9.2 5.9l-20.3-30.6v23.4c.8 3.7 3.6 12.6 9.6 14.2h19.7l.4-8.8l-0.2-4.1Zm65.2-190.1c.3 1 .6 2 .8 3l.3-2.9l-1.1-0.1Z" fill-rule="nonzero"/><path d="M326 474c9.1-26.3 20.4-39 29.5-30c13.6 13.4 17.3 69.5 8.4 125.4c-8.9 55.5-27 89.9-40.6 77l18.6-165.9c.6-7.4-1.8-13.4-4.8-12.3l-11.1 5.8Z" fill="#d8d8d6"/><path d="M334.6 469.5c6.4-13.3 13.5-20.6 20-19.5l1.2-5.7l871.2 1449.2l-3.3 .2c.5 5.8-1.3 11.8-5.7 17.9c-25.5 36.1-128.7 62.1-230.5 58.1c-90.1-3.6-148.9-29.4-143.7-60.3l-520.7-1260.8l18.8-168.1c.4-7.4-1.7-13-4.8-12.3l-2.5 1.3Z" fill="#e8df87" fill-opacity=".71"/><path d="M1249 1554.4l-0.6-162.3l-0.3-86.8l-1.7-32.2l.2-19.8l-19.2-111.8l-2-5.9l-15-44.5c0 0-2-1.8-2.3-0.7c-0.3 1-1.9 5.4-2.5 6.1c-0.6 .6-2.3-4.7-2.5-5.8c-0.3-1.1-0.8-15.2-0.8-15.2l3.1-1.7l-1.4-5.2l-12.2-33l-24.6-67.4c0 0-1.7-0.6-1.9-1.7c-0.3-1.1-5.4-14.8-5.7-13.7c-0.3 1-1.4-0.2-1.7 3.6c-0.4 3.9-2.8 6.1-3.4 7.8c-0.6 1.7-3.3 4.2-5.1 5.7c-1.9 1.5-3.5 2-4.4 1.5c-0.8-0.5-4.1-2.7-4.6-3.2c-0.6-0.4-1.8-8.5-1.9-10.3c-0.1-1.8-0.5-14.8-0.4-16.9c0-2.1 1.9-11.6 2.1-12.6l9.7-12.7l7.5-4.6l20.1-22.9l5.2-0.2l.3 3.9c1.9 5 9.9 27.2 16.4 77.8c6 46.5 11.3 79 13.8 94.2c.5 2.6 4.2 21.5 6.8 34.6l13.1 38.8l9.6 18.7l5.9 16.1l6.3 20.1l23.9 73.3c.9 25-6.9 8.5-6.9 8.5l-11.1-31.3l-5.1-7.7l-0.4 72.6c1.3 16 2.5 34.2 2.9 46.5c.7 22.4 2.5 62.7 3.1 75.9l.2 4.1c.1 4.3 2.7 93.5 2.8 97.3l1.3 79.9c0 0 3.7 170.1 3.6 170.8c.1 4.1 .6 10.3 .6 15.3c0 11.2 1.4 25.4 2.4 36.4c.9 10.8 1.8 20.9 2.6 30.2l43.7 155.7c.7-0.6 2.1-1.8 2.1-1.8l2.8 18.8l-11.8 2l.1-13.2l-33-117.4c6.1 66.5 8 78.2 8.5 81c.2 1.2 .2 1.7 .2 2.2c0 .1 3.6 21.8 4.9 32.4c3.2 26.3 5 53.9 9.1 79.3c1.2 7.7 2.8 16.8 4.6 23.4c.8 2.9 1.2 6.2 1.8 9.4c.1 .3 .3 1.3 .4 2c.2 .5-1.7 4.3-1.8 3.7c-0.2-0.8-0.4-2.5-0.6-3c-0.5-3-0.9-5.9-1.6-8.5c-1.9-7-3.6-16.5-4.9-24.6c-4.1-25.5-5.9-53.4-9.1-79.8c-1.4-11.1-4.2-21.8-5-33.2c-0.1-0.3-0.1-0.6 0-0.8c-0.1-0.4-0.2-1-0.3-1.7c-0.9-5.5-3.3-24.1-9.6-93.7l-1.9-6.9l-9.4 22.2l3.6 72.9l.6 .4l.7 9.4l-9.2 .4v-9.8l.8-1.1l-2.8-57.2l-4.1 9.6l-19.8-46.8l-39.4 140.2l.6 .4l-0.9 12.5l-11.7-2l2.8-18.8l3.1 2.6l-0.6-0.9l60.2-214.1v-240.9c-0.6-0.4-1-1.8-1-3.4v-7c0-1.9 .6-3.5 1.3-3.5h.8Zm57.5 584.5c0 .1-0.1 .3-0.1 .5c0 .2 0 .5 0 .7c0-0.4 0-0.9 .1-1.2Zm-410.4-1155.9c-4.4 0-8.1 4-11.1 12l-0.3 .9c-1.5 4.6-2.5 10.5-3 17.6c.3 33.7 0 53.2-0.9 58.5c-1 13.1-2.8 26.2-5.3 39.3l-9.2 41.3c-9.7 4.1-15.2 9.6-16.6 16.4c-2 5.7-3.1 15.9-3.3 30.5c-0.1 10.2 .2 17.1 .8 20.9l5.1 24.7c2.2 20.8 7.1 56.5 14.9 107.1c1.5 11 2.5 20.9 3.2 29.8c1 13 1.3 24.8 .9 35.4c.6 .5-1.5 24.6-6.2 72.4c-0.8 15.3-0.8 30.7 0 46.1c.7 13.1 1.7 24.9 3 35.5c1.6 13.9 6.8 51.1 15.5 111.4c1.9 14.9 3.1 26.2 3.3 33.9c.3 9.1 .1 16.6-0.6 22.5c-5.7 33.5-8.6 56.4-8.6 68.5c-1.2 11.7-0.4 58.7 2.3 141c.6 4.6-1.1 18.5-5.1 41.7c-0.5 4.2-0.3 8.1 .4 11.7c3.5 5.7 6.6 8.5 9.6 8.5c3.2 0 6.1-3.5 8.7-10.5c0-0.1 .1-0.1 .1-0.1c.3 0 .2 2.6-0.2 7.7c-4 28.3-5.7 42.4-5.2 42.4c0 0 .1-0.1 .1-0.1c-0.7 4.1 2.1 7.2 8.4 9.4l42.4-13.2c8.7-7.1 14.1-15.7 16.1-25.9c.1-7.7-1.2-12.7-3.9-15.1c-15.8-1.7-26.5-5.2-31.9-10.4l1.5-24.5c3.1-2.8 4.4-4.9 4.1-6.3c-2.3-6.1-3.1-18.4-2.3-36.9c.3-7 .9-13.7 1.6-20.2l7.6-64.7l2.8-80.9l22.4-166.4c1.7-12.5 2.8-25.8 3.4-39.8c1.2-46 1-81.8-0.5-107.4l-16.6-94l-3-22.1c-0.2-3.1 0-5.7 .6-7.9c3.9-11.9 6.1-21.5 6.7-28.7c1.4-14.8 1.6-27.9 .7-39.4c5.9 1.1 21.2 11.8 45.9 32.2c-0.9 8.3-0.7 39.1 .7 92.4c.2 5.7 .5 11.2 1.1 16.3l4 25.1c-0.2 3.4-0.9 7.6-2.1 12.6c-5.2 10.7-8 17.3-8.1 19.9l.7 11.4c-2.1 11.8-2.9 20.3-2.1 25.5c-0.3 9.9 10.2 33 31.5 69.3c5.4 125.4 6.8 209.2 4.2 251.3c-1.6 6.3-3.5 10.6-5.8 12.8l-25.9 17.8c-3.5 3.4-4.9 6.9-4.2 10.7c3.5 11.9 15.8 19 36.9 21.3c3.2 .2 6.4 .3 9.3 .3c19.8 0 31.8-4.7 36.2-13.9c1.2-3.4 .3-7.2-2.8-11.5c-2-3.6-9.8-10.1-23.4-19.7c-2-1.9-4.8-7.7-8.5-17.3l.4-91.4l4.6-0.1c2.7 25.2 10 41.8 21.8 49.8c.7 .5 1.4 .7 2 .7c2.6 0 4.1-3.8 4.5-11.4c.8-1.8-0.7-19.1-4.4-52.1h.1c9.9 27.6 19.8 41.4 29.5 41.4c2.1 0 4.2-0.6 6.3-1.9c1.6-4.5 1.8-8.4 .6-11.6c-13.9-16.8-22-36.8-24.1-60l13.7-17.7l10.6-24.9c19.6-36.3 32-60.2 37-71.7c2.1-4.8 3.2-8.6 3.4-11.3l1.6-25.8c1.5-9.6-4.1-22.7-16.7-39.4c.9-1.9 1.2-3.3 .8-4.3c-4.8-18.3-7.8-31.2-8.9-38.6l-6.5-51.4l-12.1-45.8l-1.3-15.9l-5-23.4c-2.7-29.8-5.2-49.4-7.6-58.8c-0.8-3.1-1.8-5.2-2.9-6.4c-15-11-22.1-17.7-21.3-20.1c-0.5-1.7-0.7-5-0.4-10.1c2.9-7.6 4.4-15.5 4.3-23.7c2.8-3 4.7-9.6 5.8-19.6c.5-5.7-0.5-10.2-3.2-13.6c1.2-17 1.1-27.8-0.3-32.5c-6.6-16.5-13.3-24.7-20.1-24.7c-4.8 0-9.8 4.2-14.7 12.7c-4.4 9.4-7.1 21.7-8.1 36.7c-0.1 1 0 1.4 .2 1.4c.3 0 .9-0.8 1.8-2.4c0-0.1 .1-0.1 .2-0.1c.3 0 .4 .6 .5 1.9l.2 11c-1.3 2.9-1.7 5.6-1.4 8.2c1.6 7.8 3.2 22.6 4.9 44.5c.6 4.5-6.1 10.6-20.1 18.3h-0.1c-1.6 0-15.7-31.5-42-94.5c-1.8-13.1-3-24.2-3.5-33.1c1.4-3.6 1.8-7.2 1.3-10.7c-0.9-5.9-3.1-10.4-6.6-13.6c-1.4-1.1-2.8-1.6-4.1-1.6c-1.6 0-3.3 .9-4.8 2.7c-0.7 .9-1.5 1.8-2.2 3l-9.1-2.5c-1.5-7.3-3.6-10.9-6.5-10.9c-0.4 0-0.9 .1-1.3 .2l-1.1-4.9c1.6-11.4 1.5-23.5-0.3-36.3c-1.6-9.9-4.6-18.8-8.9-26.6c-3-5.6-5.7-9-8.1-10.4l-17.9-5.8c-0.2 0-0.4 0-0.5 0Zm539.2 606.8l-10.9 114.5l-4.8 50.8c0-0.1 .2-0.4 .5-0.4c.2 .1 .4 .3 .4 1c0 1.8-0.1 2.9-0.1 2.9c0-0.1 .4-1.5 .2 2.1c-0.1 3.7-0.1 5.1-0.7 6.1c-0.5 1.1-2 1.1-2 1.1l-13 137.7l-2.4 24.5c0 0-0.5 .2-1.2 .2c-0.7 0-1.6-0.3-1.6-1.6c-0.2-2.3 .1-5.3 .1-5.3l7.7-79.2l7.1-76.9l-1.4-0.7l.5-11.9c0 0-0.1-0.7 .9-1.3c.9-0.7 1.2-1 1.2-1l6.7-69l9.1-95.4l-1.1-1c0 0-0.2 .7-0.4 .7c-0.1 0-0.2-0.5-0.1-2.4c.3-3.9 .9-10.2 .9-10.2l1.7-0.7l14.1-144.9l.6-11.9c0 0-0.1 .2-0.2 .2c-0.3 0-0.6-0.4-0.6-2.2c0-3 .7-9.9 .8-12.9c.2-3-0.1-3.6 .6-7c.7-3.3 .3-3.9 1.5-4.6c1.2-0.7 .4 .3 1.4-2.7c.9-2.9 .2-2.3 1-4.3c.9-2 .5-3.3 1.5-3.3h.4c.3-3 .6-6 .8-8.9v-0.1l-2.4-131.5h-1.6l-0.3-4c0 0 .6 .4 1.1 .4c.5 0 .9-0.3 .8-1.4c0-0.3 0-0.7-0.1-1.1c-2.1-4.9-3-10-5.9-13.3c-0.1-0.1-0.2-0.2-0.3-0.3c-2.4 3.8-5.9 5.1-6 5.1c0 0-1.5-1-1.5-2.7c0-1.6-0.8-1.9-0.8-1.9l-0.1-1.1c-0.1 0-0.2 0-0.3 0c-6.3-1.9-3.4-5.4-3.9-14.6l-14.1 1.9c-0.7 .1-1.3 3.3-2 3.3l-12.7 .6l-0.4-51.7l12.9-0.5c.2 .7 .5 1.7 1.1 4.8l14.3-1.5c0-0.4-0.1-0.9-0.1-1.5c-0.4-4.1-1.6-3.2 0-7.8c1.3-4 2.6-5.6 2.8-5.7l-1.7-10.1c0 0-0.4-10.1 1.7-6.8c2.1 3.4 3.9 8.5 3.9 8.5c0 0 .3 0 .7 0c.9 0 2.4 .2 3.8 1.6c.3-0.1 .7-0.1 1-0.1c.7 0 1.4 .2 1.9 .6c.9 .9 1.5 3.2 2 3.2c.1 0 .2-0.1 .3-0.5c.5-1.9 .8-4.8 .8-4.8c0 0-0.7-0.8-0.6-2.5c.1-1.6-0.2-3.3 1.8-3.9c1.2-0.3 3.1-0.7 4.9-0.7c1.4 0 2.7 .3 3.5 1c1.7 1.7 2 1.7 2 1.7c0-0.1-0.6-1.1 .6-1.1c.8 0 1.3-0.6 1.6-0.6h.1c.1 0 .2 .1 .4 .6c.3 1.4 .5 2.7 1.3 6.1c.8 3.3 .9 3.9 1.4 6.1c.5 2.2-0.3 3.3 1.5 4.1c1.8 .9 2.7 3.4 2.7 3.4c0 0 0 2.1 0 5.4c1.4 .6 2.2 1.3 2.7 1.3c.5 0 .9-0.7 1.3-2.7c1.2-5.1 .4 0 1.4-9.2c.9-9.3-1-8.3 5.7-10.6c6.6-2.4 5.5-1.9 8.7-4.2c3.3-2.3 2.9-4.2 4.8-6c1.9-1.9 4-2.3 4-2.3c0 0 0-7.9-0.2-12c-0.2-4.2-1-5.1-1-11.1c0-6-0.1-10.2-0.1-10.2c0 0-1.6-0.9-6.1 0c-2.5 .5-5.2 1.3-7.2 1.3h-0.1c-1.6 0-2.7-0.5-2.8-2.2c-0.2-3.7 .7-6 4.5-14.3c3.8-8.4 6.9-9.7 6.9-12.1c0-1.1-0.2-0.7-0.5-0.6c-0.3 0-0.6-0.5-0.7-3.5c-0.1-6 .6-1.4 1-9.7c.4-8.3 1.1-19.9 3.4-24c2.3-4.2 10.5-17.1 15.5-18.5c1.5-0.5 3.4-0.8 5.4-0.8h.1c4.3 0 9 1.4 11.6 5.9c3.8 6.4 6.1 10.1 7.4 19.8c1.3 9.7 .8 30.1 0 32.4c-0.7 2.3 1 7.4 1.2 11.1c.1 3.7 .3 13.8 .1 17.1c-0.1 3.2-1.5 6.9-1.5 6.9c.1-0.2 3.3-6.8 3.8 3.2c.6 10.2-0.5 3.3 3.6 11.6c4.2 8.3 5 21.2 5 21.2l2.9 5.6c0 0 3.2 .9 6 5.1c2.9 4.1 4.2 2.3 6 9.7c1.7 7.3 3.4 .4 4.7 16.6c1.3 16.2 1.7 15.2 2.1 27.7c.4 12.5 1 26.8 .4 36.5c-0.6 9.7-2.3 32.8-7.2 41.6c-5 8.8-8.2 13.4-8.4 19.4c-0.2 6 .7 .9-0.2 18c-1 17.1-3.6 29.1-4 53.2c-0.4 24-7.3 52.6-7.6 89.1c-0.4 36.5-1.7 28.7-3.1 49c-1.3 20.3-2.1 26.8-3.6 28.2c-0.8 .7-3.1 .9-5.4 .9c-2.4 0-4.6-0.2-5.1-0.4c-0.9-0.5-5.7 2.7-4.7 14.8c.9 12 1.1 48.5 1.9 70.2c.7 21.7 1.5 28.2 1.7 55.9c.2 27.7 .6 37 .6 49c0 12 .2 5.5 0 19.8c-0.1 1.5-0.1 2.8-0.1 4.1c3.4 19.4 8.3 47 9.6 52.9c2.1 9.1 11.9 67.3 11.9 67.3c0 0 1 4.8-0.7 4.8c-0.1 0-0.3 0-0.4-0.1c-2.3-0.8-2.9-6.4-2.9-6.4c0 0-10.2-57.9-11.4-64c-0.5-2.5-2.8-15.1-5.3-28.9c.3 3.3 .6 6.9 1 11c1.7 18 .9 20.8 1.1 25.9c.2 5.1-0.2 2.7 1.3 10.1c1.6 7.4 2.5 5.1 1.6 13.4c-1 8.4-3.5 5.1-6.1 14.8c-2.7 9.7-8 19.4-12.6 24.1c-3.5 3.5-6.4 4.9-10.8 4.9h-0.1c-1.3 0-2.7-0.1-4.3-0.3c-7.3-0.9-9.3 .9-10.1-2.8c-0.8-3.7-1.3-1.8-0.8-5.5c.6-3.7-0.2-2.8 1-6.5c1.1-3.7 1.1-3.2 4.2-6c3-2.8 2.6-1.9 3.8-6.9c1.1-5.1 4.5-5.6 3-11.6c-1.5-6-2.8 2.3-3.4-13.9c-0.6-16.1-0.8-7.8-0.8-34.6c0-11.3-0.9-14-2.9-14c-1.8 0-4.6 2.3-8.2 2.3h-0.1c-0.7 0-1.5-0.1-2.3-0.3c0 0-2.8 .9-3.8 1.8c-0.9 .9 1.7 2.3-1.1 2.3c-1.9 0-2.9 1.3-5.1 1.3c-1.2 0-2.6-0.3-4.6-1.3c-6.1-2.7-5.9-1.8-7.1-6.4c-1.1-4.7-2.1-6.5-2.1-9.3c0-2.8 1.3-6.4 1.3-6.4c0 0 .2-1.9 1.6-3.3c1.3-1.4 2.1-0.9 4.9-2.3c2.9-1.4 3.3-0.9 5.2-2.8c1.9-1.8 3.2-3.2 4.7-4.1c1.5-1 .6-1 1.7-1c1.2 0 1.4-31.8-1.7-47.1c-3-15.2-6.8-40.6-8.9-55.9c-2.1-15.2-6.3-23.1-7.6-30.9c-1.4-7.9-3.3-29.6-3.1-38.4c.2-8.8 .2-42.5 1-58.7c.7-15.9 .4-23.8 .3-24c0 0-0.9 .4-2.2 .9l-0.3 35.9l.5 .9c0 0-0.1 6.5-0.1 8.3v3c0 0-0.2-0.1-0.4-0.1c-0.3 0-0.6 .2-0.6 1c.1 1.3-2 84.3-2 84.3l-0.9 25.2c0 0 .1 .7 .4 2.2c.3 1.5-0.2 5.7-0.3 7.4c-0.1 1.8-0.6 3.5-0.6 3.5l-2.7 86.5l-0.5 15.4c0 0 .6 .3 .6 2c0 1.7-0.4 5-0.4 5l-0.2 2.2l.1 3.7c0 0-1.4 1.1-2.2 1.1c-0.8 0-1.2-2.9-1.2-4.2v-2.6l-1.4 .5c0 0-0.4-0.3-0.1-3.1c.3-2.8 .2-2.8 .9-5c.7-2.2 1-2.4 1-2.4c0 0 2.3-76.4 2.5-79.7c.2-3.3 .6-19.8 .6-19.8c0 0 0 .1-0.1 .1c-0.1 0-0.2-0.2-0.3-1c-0.2-1.5-0.2-2.3-0.2-2.4c0 0-0.4 .2-0.9 .2c-0.4 0-0.8-0.2-0.7-1.1c.2-1.7-0.8-3.9 .5-6.9c1.4-3.1 1.7-2.7 1.7-4.6c0-2 1.7-63.2 1.7-63.2l1.1-43.8c0 0-0.3-0.6-0.5-1.7c-0.2-1.1-0.2-1.9-0.2-2c0 0-0.7 .7-1.3 .7c-0.2 0-0.5-0.2-0.5-0.7c-0.1-1.5 0-6.5 0-6.5l2.3-6.1l.9-30.7c-1.8 .7-3.7 1.4-4.8 1.8c-0.5 .1-0.8 .3-1.2 .6l-7.1 78.6c0 0 .3 1.1 .6 2.6c.2 1.6 .2 4.4-0.1 6.6c-0.4 2.1-1.1 2.4-1.1 2.4l-0.6 1.3h-0.7Zm-197.5 285.3l10.1 23.8v-59.5l-10.1 35.7Zm25.2 15.2l6.4-15.2l-8.7-30.9l2.3 46.1Zm-4-327.5v2.1c0 1.5-0.4 2.8-0.9 3.3v143.9c.1 18.4 0 54.5 0 54.9c-0.1 12.6 0 25.2 0 37.8l13.4 47.5c-0.5-5.5-1-11.2-1.5-17.1c-1-11.4-2.4-26.1-2.4-37.8c0-5.1-0.6-11.4-0.7-15.5c0-0.5-3.5-170.4-3.5-170.4c-0.4-26.6-0.9-53.2-1.3-79.8c0-1.4-0.1-2.8-0.1-4.2c-0.1-3.6-0.2-7.2-0.3-10.7c-0.3-10.8-0.7-21.6-1-32.3c-0.3-11-0.6-22-0.9-33c-0.2-3.8-0.3-7.7-0.4-11.5c0-1.7-0.1-3.4-0.1-5.1c-0.1-1.4-0.2-2.8-0.2-4.2c-0.1-2.1-0.2-4.1-0.3-6.2c-0.3-5.9-0.5-11.9-0.8-17.8c-0.5-13.5-1.1-27-1.6-40.5c-0.1-2.8-0.2-5.6-0.3-8.4c0-1.8-0.1-3.6-0.2-5.5c0-1.5-0.1-3.1-0.2-4.7c0-0.4 0-0.8 0-1.2c-0.1-0.4-0.1-1.7-0.1-1.3c.1 11.9 .2 23.7 .3 35.5l1.2 173.8h.6c.7 0 1.3 1.6 1.3 3.5v1.3h.4v-2c0-1.1 .4-1.9 .7-1.9h1.4c.3 0 .7 .8 .7 1.9v8.1c0 1-0.4 1.8-0.7 1.8h-1.4c-0.1 0-0.2-0.1-0.3-0.2c-0.1-0.2-0.2-0.4-0.2-0.6c-0.1-0.1-0.1-0.2-0.1-0.3c0-0.1 0-0.3 0-0.4c-0.1-0.1 0-0.2-0.1-0.3v-2.5h-0.4Zm-221.7 139.6l2.1 .9l-0.1 2.6c0 .2 .1 .4 .1 .6c0 .1 .1 .2 .1 .3l1.7 2.2l-0.3 1.2l-3.6-0.6v-7.2Zm3.9-62.5l2.7 18.9c-0.4 5.3-1 9.6-1.6 12.7c-0.6 3.1-1.8 7.4-3.5 12.7l2.4-44.2v-0.1Zm29.4-114.4c4.9 3.5 8.5 6.1 10.7 7.9c7.3 6.1 15.5 12.5 24.5 19.4c-9.8 17.9-16 29.6-18.7 35.2c-12.6 26.5-20.7 43.6-24.5 51.2l2.8-51.3c4-41.5 5.7-62.3 5.2-62.3v-0.1Zm4.6-157.2c2 6 3.5 11.1 4.6 15.3l5.1 22.4l2.9 11.4l6.2 21.8l4.6 13.7l5.9 24c-13.4-11.9-20.1-18.2-20.2-18.8c-2.3-2.6-7.5-10.1-15.3-22.8l-0.1-45l6.3-21.8v-0.2Zm374.4 72.9c-0.4 2.9-0.7 5.7-0.9 8.1c0 .1 0 .1 0 .2c.4-2.2 .7-4.7 .9-8.3Zm14.1-195.3h-0.1l-0.1-0.1h-0.1l-0.1-0.1l-0.2-0.1l-0.2-0.1h-0.1l.9 .4h.1h-0.1v-0.1h-0.1v-0.1h-0.1l-0.1-0.1h-0.1h-0.1v-0.1h-0.1h-0.1h-0.1h-0.1h.1h.1h.1h.1v.1h.1h.1l.1 .1h.1v.1h.1v.1h.1h-0.1h.1h-0.1v-0.1h-0.1v-0.1h-0.1l-0.1-0.1h-0.1l-0.1-0.1h-0.1h-0.1h-0.1h-0.1c1.2 0 2.4 1.8-3.8-2.4c-1-0.8-2-1.6-2.8-2.4c.1 2.6 .7 59.3 .9 63.4c.2 2 .5 20.3 .8 38.5c0-0.4 .1-0.8 .2-1.1c4.1-28.7 7.2-51.8 9.3-61c2.1-9.3 3.4-13 3.4-13c0 0-0.4-0.4-1.5-1.3c-1.2-1-3.2-5.1-3.2-5.1c0 0-0.2 .4-0.6 .4c-0.2 0-0.6-0.3-1.2-1.4c-1.1-2.3-2.1-5.5-2.1-8.3c0-2.7-0.1-1.4-0.3-5.1c-0.1-1 .3-1.3 .8-1.3l.1 .1h.1c.1 .1 .1 .1 .2 .1l.1 .1h.1l.1 .1c0 0 .1 0 .1 0l.1 .1h.1c0 0 0 0 0 0Zm-223.2-66.1l-8.3-24.2l15.3 86.8l-0.3-43l-6.7-19.6Zm-286.3-34.4c.1 .5 3.9 9.6 11.6 27.4c1.5 3.6 2.9 7.1 4.2 10.5c3 7.7 6.8 18.2 11.3 31.5c-4.1-4.5-7.3-8.2-9.7-11.4c-0.8-0.9-4.2-5.8-10.1-14.8c-1.3-1.8-2.6-3.5-3.9-5c-1.3-1.5-2.9-3.1-4.6-4.7l-16-15v-0.1c10.4-9.1 16.2-15.2 17.2-18.4Zm480.8 2c.1-0.1 .1-0.1 0-0.1v.1Zm-497-4.5h6.8c-0.8 1.3-1.6 2.2-2.3 2.8c-0.6 .5-1.3 .8-2.1 .8c-1.8-0.2-3.3-1.2-4.6-3.2l2.2-0.4Zm263.8-98.1l12.2 36c-1.3-6.9-2.5-12.7-2.6-13.8c-2.8-16.1-8.1-48.8-14.1-95.5c-5-38.9-11-60.7-14.1-70.4l-4.3 7.4l-9.7 21.5l1.9 12.7l2.3 12.8l-0.1 4.8l28.5 84.5Z" fill="url(#Gradient-17)"/></g></svg>